<!--?xml version="1.0" encoding="utf-8"?-->
<!-- Generator: Adobe Illustrator 18.1.1, SVG Export Plug-In . SVG Version: 6.00 Build 0)  -->

<svg version="1.1" id="_x32_" xmlns="http://www.w3.org/2000/svg" xmlns:xlink="http://www.w3.org/1999/xlink" x="0px" y="0px" viewBox="0 0 512 512" style="width: 64px; height: 64px; opacity: 1;" xml:space="preserve">
<style type="text/css">
	.st0{fill:#4B4B4B;}
</style>
<g>
	<path class="st0" d="M506.512,142.35c-1.34-16.596-5.398-31.328-11.393-43.996c-9.008-19.021-22.32-33.264-36.808-42.689
		c-14.505-9.4-30.152-14.234-44.886-14.276h-0.016c-4.035,0-8.012,0.401-11.883,1.225c-1.356-2.401-2.769-4.712-4.345-6.844
		l0.008,0.017c-5.145-7.048-11.311-12.43-17.714-16.407c-6.353-3.962-12.814-6.567-18.923-8.74
		c-9.106-3.225-18.13-4.655-26.69-4.655c-0.008,0-0.098,0-0.261,0c-12.536,0.041-23.937,3.104-33.64,7.546
		c-3.512,1.609-6.73,3.439-9.8,5.342c-3.079-2.736-6.419-5.251-10.054-7.456h0.008c-9.85-6.003-21.462-9.678-34.473-10.936
		c-3.234-0.318-6.411-0.466-9.506-0.473L235.909,0c-12.56,0-24.01,2.516-33.949,6.697c-14.93,6.28-26.314,16.138-34.211,26.558
		c-3.888,5.137-6.95,10.454-9.229,15.754c-3.152-0.408-6.378-0.694-9.759-0.694c-0.025,0-0.066,0-0.147,0.008
		c-15.036,0.008-28.233,2.27-39.643,6.746c-8.567,3.365-16.064,7.971-22.32,13.59v-0.008c-9.417,8.42-15.778,18.858-19.634,29.76
		c-3.863,10.903-5.341,22.279-5.349,33.419c0.008,5.16,0.367,10.257,0.955,15.264c-8.06,3.527-15.321,7.619-21.691,12.274h0.008
		c-14.767,10.764-24.803,24.338-30.79,38.499v-0.016c-6.002,14.154-8.118,28.691-8.118,42.174c0,12.805,1.904,24.753,4.468,34.986
		c2.598,10.258,5.823,18.76,8.984,25.105v0.008c6.517,13.002,14.619,24.754,22.851,36.04c12.373,16.898,25.073,32.905,34.293,49.688
		c4.631,8.403,8.428,16.971,11.083,26.003c2.638,9.033,4.166,18.539,4.174,29.042V512h29.36v-71.101
		c0.008-17.862-3.537-33.974-9.163-48.503c-8.437-21.814-21.3-40.092-33.779-57.022c-12.519-16.906-24.656-32.537-32.553-48.38
		c-2.001-4.002-4.704-10.903-6.77-19.144c-2.075-8.265-3.578-17.951-3.578-27.824c0-6.942,0.735-13.966,2.442-20.736
		c2.598-10.176,7.278-19.699,15.232-28.144c7.718-8.142,18.71-15.427,34.701-20.768c0.728,0.025,1.674,0.106,2.63,0.278
		c0.964,0.171,1.911,0.442,2.654,0.752c0.564,0.237,0.996,0.498,1.315,0.718c0.466,0.376,0.662,0.596,0.915,1.086
		c0.228,0.498,0.588,1.429,0.596,3.488v76.255c0,6.819,5.537,12.356,12.373,12.356c6.828,0,12.365-5.537,12.365-12.356V176.7
		c0.024-6.207-1.52-12.046-4.411-16.71c-2.156-3.503-4.965-6.247-7.824-8.232c-4.279-2.965-8.592-4.37-12.251-5.17
		c-0.686-4.949-1.102-9.907-1.102-14.757c0-7.563,0.923-14.808,2.875-21.234c1.478-4.827,3.504-9.18,6.141-13.026
		c3.986-5.758,9.269-10.454,16.979-14.023c7.71-3.544,18.008-5.864,31.68-5.864c5.962,0,10.829,0.94,14.97,2.442
		c7.204,2.646,12.488,7.081,16.865,12.871c3.25,4.337,5.856,9.433,7.848,14.676c2.997,7.864,4.59,16.04,5.366,22.132
		c0.392,3.054,0.58,5.578,0.67,7.285c0.048,0.857,0.074,1.51,0.09,1.919l0.008,0.449v0.048v0.017
		c0.008,6.819,5.537,12.348,12.356,12.348c6.836,0,12.373-5.537,12.373-12.365c-0.007-0.408-0.016-5.545-1.02-13.197
		c-0.752-5.741-2.05-12.896-4.394-20.589c-3.528-11.483-9.335-24.338-19.821-34.848c-2.81-2.809-5.987-5.398-9.49-7.71
		c0.555-1.683,1.347-3.594,2.401-5.57c3.39-6.452,9.352-13.672,17.502-19.062c8.183-5.39,18.449-9.139,31.524-9.163
		c2.189,0,4.468,0.106,6.819,0.335l0.008,0.008c11.082,1.111,18.882,4.264,25.097,8.829c2.802,2.082,5.276,4.541,7.554,7.342
		c0.531,1.74,1.413,3.398,2.736,4.819c0.53,0.564,1.111,1.061,1.714,1.503c4.925,8.232,8.576,19.004,11.165,31.638
		c2.638,12.764,4.238,27.327,5.521,42.778c0.571,6.803,6.541,11.875,13.352,11.304c6.803-0.564,11.859-6.55,11.295-13.353
		c-1.176-14.088-2.614-27.858-4.998-40.876c-1.805-9.768-4.133-19.127-7.399-27.898c-1.413-3.79-3.014-7.449-4.819-10.984
		c2.54-1.674,5.26-3.242,8.176-4.574c6.533-2.981,13.818-4.884,21.658-4.884c5.324,0,10.928,0.866,16.914,2.981
		c6.166,2.164,11.122,4.386,15.165,7.285c3.038,2.197,5.684,4.753,8.232,8.428c1.993,2.874,3.921,6.533,5.693,11.189
		c-0.041,2.629,0.8,5.259,2.45,7.489c0.677,2.417,1.323,5.006,1.927,7.864c2.695,12.814,4.459,30.088,4.876,53.053
		c0.123,6.828,5.766,12.266,12.594,12.127c6.828-0.122,12.258-5.757,12.128-12.584c-0.392-21.316-1.862-38.442-4.394-52.53
		c-0.588-3.284-1.258-6.346-1.96-9.311c1.74-0.367,3.724-0.596,5.946-0.588c5.39-0.016,11.964,1.266,18.71,4.116
		c10.151,4.255,20.637,11.924,28.927,23.325c8.298,11.434,14.554,26.608,16.187,46.526c2.221,27.384,3.373,53.534,3.373,79.122
		c0,30.112-1.584,59.423-4.876,89.043c-3.406,30.79-13.182,63.71-22.148,88.693c-4.476,12.496-8.739,23.03-11.867,30.406
		c-1.568,3.683-2.842,6.583-3.732,8.542c-0.441,0.98-0.784,1.724-1.004,2.222l-0.261,0.539l-0.049,0.13l-0.016,0.025l-1.192,2.507
		V512h29.376v-59.561c2.907-6.452,9.367-21.332,16.39-40.957c9.401-26.289,19.829-60.876,23.692-95.349
		c3.406-30.707,5.048-61.146,5.048-92.286C509.967,197.386,508.791,170.427,506.512,142.35z" style="fill: rgb(51, 51, 51);"></path>
</g>
</svg>
